Coordinates
version=1
nRows=19
nColumns=63
inDegrees=yes

Units are S.I. units (second, meters, Newtons, ...)
If the header above contains a line with 'inDegrees', this indicates whether rotational values are in degrees (yes) or radians (no).

endheader
time	pelvis_tilt	pelvis_list	pelvis_rotation	pelvis_tx	pelvis_ty	pelvis_tz	hip_flexion_r	hip_adduction_r	hip_rotation_r	knee_angle_r	knee_angle_r_beta	ankle_angle_r	subtalar_angle_r	mtp_angle_r	hip_flexion_l	hip_adduction_l	hip_rotation_l	knee_angle_l	knee_angle_l_beta	ankle_angle_l	subtalar_angle_l	mtp_angle_l	L5_S1_Flex_Ext	L5_S1_Lat_Bending	L5_S1_axial_rotation	L4_L5_Flex_Ext	L4_L5_Lat_Bending	L4_L5_axial_rotation	L3_L4_Flex_Ext	L3_L4_Lat_Bending	L3_L4_axial_rotation	L2_L3_Flex_Ext	L2_L3_Lat_Bending	L2_L3_axial_rotation	L1_L2_Flex_Ext	L1_L2_Lat_Bending	L1_L2_axial_rotation	L1_T12_Flex_Ext	L1_T12_Lat_Bending	L1_T12_axial_rotation	Abs_r3	Abs_r2	Abs_r1	Abs_t1	Abs_t2	neck_flexion	neck_bending	neck_rotation	arm_flex_r	arm_add_r	arm_rot_r	elbow_flex_r	pro_sup_r	wrist_flex_r	wrist_dev_r	arm_flex_l	arm_add_l	arm_rot_l	elbow_flex_l	pro_sup_l	wrist_flex_l	wrist_dev_l
2.694915	-0.756329	-30.104567	88.215619	0.068151	0.452295	0.946984	43.892092	-3.114379	0.050442	20.706140	0.361390	23.983383	0.125939	0.000000	35.652605	0.429022	-7.718845	5.243546	0.091517	20.514231	0.151155	0.000000	-0.303981	0.471301	-5.429540	-0.564523	0.626830	-5.768886	-0.499410	1.145921	-5.768886	-0.347420	1.145921	-4.750847	-0.282277	0.961077	-4.411501	-0.173695	0.730045	-4.072155	-2.171306	5.331452	-30.197470	0.000000	0.000000	4.424850	-2.779129	42.716585	63.962875	24.616867	150.676773	0.096943	1.245293	-69.604399	-22.639508	-34.323516	-14.437293	23.082972	144.973556	84.394988	-1.739948	16.572903
2.711864	-1.741469	-30.165844	87.334546	0.070619	0.450957	0.949912	44.719793	-3.452154	0.731452	21.612817	0.377215	24.448714	-0.013705	0.000000	35.848179	0.801570	-8.360566	5.316551	0.092791	20.479758	0.226936	0.000000	-0.360217	0.405920	-5.309387	-0.668959	0.539874	-5.641224	-0.591800	0.986955	-5.641224	-0.411692	0.986955	-4.645714	-0.334497	0.827753	-4.313877	-0.205828	0.628771	-3.982040	-2.572994	4.591853	-29.529219	0.000000	0.000000	4.408055	-2.338235	42.347951	64.476323	25.059314	149.855699	0.095969	1.213180	-69.608602	-22.590013	-36.614118	-15.654641	22.046604	145.601906	86.421200	4.780159	18.297575
2.728814	-2.578271	-30.185186	86.556662	0.073095	0.450035	0.952589	45.318867	-3.707976	1.238000	22.220851	0.387827	24.817532	0.026055	0.000000	35.957487	1.075329	-9.088427	5.324852	0.092936	20.470919	0.675789	0.000000	-0.415836	0.346147	-5.203272	-0.772249	0.460375	-5.528476	-0.683177	0.841621	-5.528476	-0.475259	0.841621	-4.552863	-0.386145	0.705862	-4.227658	-0.237609	0.536181	-3.902454	-2.970274	3.915681	-28.939037	0.000000	0.000000	4.519288	-2.065504	41.737589	64.969889	25.465484	149.192789	0.095297	1.196339	-69.610713	-22.539624	-38.378389	-16.156456	22.017754	144.006955	87.301488	10.827269	18.483144
2.745763	-2.946775	-30.291310	86.201916	0.074797	0.449508	0.954414	45.652266	-3.775171	1.019898	22.353547	0.390143	25.065460	0.644598	0.000000	36.105112	1.125201	-9.492514	5.271887	0.092012	20.518757	1.345087	0.000000	-0.453305	0.348103	-5.165812	-0.841832	0.462978	-5.488675	-0.744734	0.846379	-5.488675	-0.518082	0.846379	-4.520085	-0.420939	0.709853	-4.197222	-0.259018	0.539212	-3.874359	-3.237910	3.937816	-28.730694	0.000000	0.000000	4.780546	-2.397830	41.379509	65.367711	25.832712	149.034163	0.094987	1.186738	-69.609483	-22.482937	-39.335376	-16.009954	21.756467	140.936307	88.205416	16.184932	17.615385
2.762712	-2.905088	-30.441699	86.207425	0.075884	0.449435	0.955258	45.679682	-3.648393	0.546019	21.987290	0.383751	25.098890	1.294708	0.000000	36.219869	0.994822	-9.386095	5.108347	0.089157	20.541514	1.886071	0.000000	-0.469242	0.404338	-5.185327	-0.871429	0.537769	-5.509410	-0.770918	0.983106	-5.509410	-0.536297	0.983106	-4.537161	-0.435738	0.824525	-4.213078	-0.268125	0.626319	-3.888995	-3.351748	4.573947	-28.839231	0.000000	0.000000	5.155249	-3.297330	41.352589	65.636843	26.163722	149.286395	0.095160	1.185892	-69.605409	-22.422118	-39.581579	-15.826040	21.321664	138.008048	89.056185	20.359525	16.435009
2.779661	-2.654864	-30.538031	86.398511	0.076832	0.449831	0.955414	45.390258	-3.411295	0.129687	21.238589	0.370683	24.938327	1.754002	0.000000	36.217870	0.761832	-9.062299	4.884070	0.085243	20.564638	2.436489	0.000000	-0.471021	0.479395	-5.225042	-0.874732	0.637595	-5.551607	-0.773840	1.165600	-5.551607	-0.538329	1.165600	-4.571912	-0.437390	0.977581	-4.245347	-0.269141	0.742582	-3.918782	-3.364453	5.423008	-29.060117	0.000000	0.000000	5.516272	-4.464531	41.396095	65.776413	26.425129	149.691984	0.095775	1.189878	-69.599645	-22.355234	-39.345684	-15.933127	20.826882	136.143230	89.643277	23.057588	15.453815
2.796610	-2.237573	-30.562926	86.785058	0.077712	0.450619	0.955001	44.811079	-3.099195	-0.280508	20.176861	0.352153	24.615901	2.043660	0.000000	36.108885	0.459788	-8.560017	4.636459	0.080921	20.609385	3.017909	0.000000	-0.460924	0.561858	-5.286153	-0.855982	0.747271	-5.616538	-0.757252	1.366101	-5.616538	-0.526790	1.366101	-4.625384	-0.428014	1.145740	-4.294999	-0.263372	0.870318	-3.964615	-3.292336	6.355847	-29.399998	0.000000	0.000000	5.796735	-5.654212	41.449350	65.792633	26.607504	150.167505	0.096709	1.201065	-69.593668	-22.292242	-38.678988	-16.057418	20.177289	135.457994	89.808977	24.264455	14.885629
2.813559	-1.700446	-30.537784	87.294134	0.078614	0.451772	0.953890	43.984576	-2.724536	-0.720552	18.859162	0.329154	24.175585	2.316870	0.000000	35.888765	0.100278	-7.942095	4.355743	0.076022	20.654498	3.588187	0.000000	-0.436199	0.648321	-5.363374	-0.810064	0.862267	-5.698585	-0.716631	1.576327	-5.698585	-0.498531	1.576327	-4.692952	-0.405054	1.322056	-4.357741	-0.249244	1.004249	-4.022531	-3.115722	7.333935	-29.829478	0.000000	0.000000	5.938307	-6.829241	41.623178	65.661307	26.740247	150.749730	0.097884	1.211665	-69.587915	-22.223796	-37.415341	-16.005883	19.457256	135.718362	89.419056	23.798291	14.313113
2.830508	-1.045547	-30.483982	87.895910	0.079548	0.453296	0.951822	42.899173	-2.259015	-0.952726	17.251541	0.301096	23.499158	2.223791	0.000000	35.541453	-0.327741	-7.227641	4.009341	0.069976	20.691904	4.130301	0.000000	-0.394164	0.740461	-5.455220	-0.732001	0.984813	-5.796172	-0.647571	1.800357	-5.796172	-0.450490	1.800357	-4.773318	-0.366020	1.509948	-4.432366	-0.225225	1.146974	-4.091415	-2.815471	8.376243	-30.340299	0.000000	0.000000	5.910023	-8.015817	41.936984	65.352885	26.829656	151.459074	0.099305	1.227746	-69.582605	-22.173265	-35.454619	-15.600057	18.660630	136.675914	88.799250	21.639099	13.496830
2.847458	-0.247390	-30.413816	88.610385	0.080426	0.455208	0.948678	41.561088	-1.701231	-1.034358	15.370301	0.268262	22.570259	1.786662	0.000000	35.070169	-0.830617	-6.396060	3.594447	0.062735	20.699937	4.615556	0.000000	-0.336020	0.842159	-5.559959	-0.624022	1.120071	-5.907457	-0.552047	2.047624	-5.907457	-0.384037	2.047624	-4.864964	-0.312028	1.717330	-4.517467	-0.192002	1.304504	-4.169969	-2.400155	9.526666	-30.922825	0.000000	0.000000	5.700888	-9.229826	42.366777	64.878600	26.846757	152.360624	0.100868	1.245566	-69.578753	-22.140939	-32.731067	-14.732916	17.789720	138.161801	88.244137	17.855098	12.486823
2.864407	0.609544	-30.308925	89.293035	0.081455	0.457469	0.944618	40.031526	-1.067742	-0.929281	13.328884	0.232633	21.434149	1.103951	0.000000	34.451181	-1.392643	-5.575719	3.105002	0.054193	20.672620	5.015165	0.000000	-0.267491	0.942377	-5.655791	-0.496757	1.253361	-6.009278	-0.439461	2.291295	-6.009278	-0.305715	2.291295	-4.948817	-0.248392	1.921695	-4.595330	-0.152844	1.459742	-4.241843	-1.910660	10.660354	-31.455813	0.000000	0.000000	5.382740	-10.421392	42.894377	64.283593	26.817093	153.392550	0.102547	1.263892	-69.577074	-22.139253	-29.383602	-13.470944	16.936975	140.137861	87.812102	12.572243	11.252950
2.881356	1.444711	-30.160266	89.974586	0.082677	0.459910	0.939970	38.372191	-0.448139	-0.679313	11.222397	0.195868	20.185773	0.207702	0.000000	33.742462	-1.935614	-4.709562	2.620802	0.045742	20.624050	5.272841	0.000000	-0.192980	1.028265	-5.763042	-0.358384	1.367593	-6.123233	-0.317047	2.500124	-6.123233	-0.220557	2.500124	-5.042662	-0.179202	2.096839	-4.682472	-0.110269	1.592783	-4.322282	-1.378439	11.631943	-32.052313	0.000000	0.000000	5.045077	-11.485587	43.507792	63.634376	26.812792	154.567122	0.104340	1.296216	-69.576552	-22.172127	-25.851286	-11.904443	16.161676	142.595184	87.699282	6.081272	9.646170
2.898305	2.093612	-29.900278	90.476524	0.084370	0.462428	0.935320	36.682806	0.093184	-0.163755	9.255641	0.161541	18.913346	-0.851172	0.000000	32.930227	-2.392499	-3.993247	2.193856	0.038290	20.562455	5.391070	0.000000	-0.124035	1.075974	-5.853411	-0.230346	1.431046	-6.219250	-0.203778	2.616124	-6.219250	-0.141760	2.616124	-5.121735	-0.115179	2.194127	-4.755897	-0.070874	1.666684	-4.390059	-0.885972	12.171635	-32.554918	0.000000	0.000000	4.745970	-12.231858	44.136575	63.029550	26.869506	155.692910	0.106171	1.337200	-69.577773	-22.229153	-22.355595	-10.357768	15.650167	145.449345	87.678222	-1.466570	7.423198
2.915254	2.447354	-29.448143	90.648096	0.086671	0.465018	0.930996	34.990892	0.543726	0.721777	7.533890	0.131491	17.641901	-2.012115	0.000000	31.953726	-2.733494	-3.582698	1.817319	0.031718	20.481477	5.373527	0.000000	-0.069075	1.067707	-5.888675	-0.128279	1.420050	-6.256718	-0.113483	2.596022	-6.256718	-0.078946	2.596022	-5.152591	-0.064143	2.177268	-4.784549	-0.039469	1.653878	-4.416506	-0.493396	12.078112	-32.751046	0.000000	0.000000	4.430748	-12.564749	44.525636	62.522158	26.917379	156.598613	0.107913	1.384250	-69.581004	-22.321610	-19.028348	-9.175308	15.387842	148.346693	87.697480	-9.619912	4.423276
2.932203	2.618696	-28.838190	90.562620	0.089275	0.467638	0.926993	33.303348	0.942745	1.889480	6.032131	0.105281	16.357359	-3.254504	0.000000	30.853226	-3.015328	-3.476173	1.506886	0.026300	20.417601	5.311134	0.000000	-0.026696	1.020477	-5.871389	-0.049578	1.357235	-6.238351	-0.043860	2.481188	-6.238351	-0.030511	2.481188	-5.137465	-0.024790	2.080957	-4.770503	-0.015254	1.580719	-4.403542	-0.190690	11.543841	-32.654903	0.000000	0.000000	4.071112	-12.621136	44.632080	62.109869	26.909270	157.305584	0.109472	1.433007	-69.585459	-22.450636	-16.024636	-8.532419	15.368089	150.518156	87.662314	-17.479516	0.251464
2.949153	2.643550	-28.113120	90.242032	0.092046	0.470170	0.923364	31.659979	1.283129	3.248591	4.753109	0.082957	15.099644	-4.470932	0.000000	29.670574	-3.247522	-3.588625	1.257149	0.021941	20.364565	5.125032	0.000000	0.004880	0.944306	-5.821336	0.009063	1.255927	-6.185169	0.008018	2.295985	-6.185169	0.005578	2.295985	-5.093669	0.004532	1.925628	-4.729835	0.002789	1.462730	-4.366002	0.034859	10.682175	-32.376524	0.000000	0.000000	3.692888	-12.474302	44.649675	61.789145	26.929344	157.878842	0.110899	1.480181	-69.588216	-22.593127	-13.426732	-8.114161	14.963581	152.158387	87.553609	-21.697245	-0.180295
2.966102	2.529798	-27.300054	89.673000	0.095005	0.472510	0.920223	30.096288	1.569025	4.793382	3.705268	0.064669	13.914999	-5.638430	0.000000	28.434364	-3.435536	-3.992154	1.064593	0.018581	20.348488	4.898025	0.000000	0.027229	0.842531	-5.749629	0.050568	1.120566	-6.108981	0.044735	2.048529	-6.108981	0.031120	2.048529	-5.030925	0.025285	1.718089	-4.671573	0.015559	1.305080	-4.312222	0.194496	9.530877	-31.977711	0.000000	0.000000	3.307766	-12.103700	44.703820	61.555035	27.052776	158.335613	0.112236	1.522223	-69.585729	-22.741237	-11.455207	-8.319634	15.167471	152.570766	87.467652	-24.942646	0.604840
2.983051	2.231721	-26.379194	88.838249	0.098206	0.474610	0.917820	28.639402	1.757434	6.497523	2.941079	0.051332	12.855675	-6.679217	0.000000	27.145217	-3.540275	-4.619147	0.933439	0.016292	20.338652	4.547999	0.000000	0.036914	0.706737	-5.653096	0.068553	0.939960	-6.006415	0.060646	1.718360	-6.006415	0.042189	1.718360	-4.946459	0.034279	1.441178	-4.593141	0.021093	1.094735	-4.239822	0.263675	7.994747	-31.440825	0.000000	0.000000	2.905619	-11.379414	44.685788	61.424006	27.275574	158.614814	0.113454	1.556024	-69.575975	-22.886749	-10.295425	-9.316623	16.127587	152.137472	87.419442	-27.230633	2.107347
3.000000	1.689301	-25.347060	87.687386	0.101733	0.476412	0.916339	27.331526	1.821000	8.353496	2.511262	0.043830	11.993786	-7.524082	0.000000	25.809779	-3.528138	-5.465284	0.857266	0.014962	20.322673	4.008473	0.000000	0.033027	0.528243	-5.529935	0.061334	0.702563	-5.875556	0.054260	1.284370	-5.875556	0.037747	1.284370	-4.838693	0.030669	1.077193	-4.493072	0.018872	0.818249	-4.147451	0.235908	5.975593	-30.755838	0.000000	0.000000	2.552171	-10.189472	44.531321	61.405655	27.604423	158.712327	0.114582	1.587956	-69.556723	-23.025204	-10.192282	-11.118195	17.662498	151.426675	87.366051	-28.358197	3.441642
